<?xml version="1.0" encoding="UTF-8"?>
<svg version="1.1" xmlns="http://www.w3.org/2000/svg" width="512" height="512">
<path d="M0 0 C1.20152206 -0.01268417 2.40304413 -0.02536835 3.64097595 -0.03843689 C4.93064774 -0.03550125 6.22031952 -0.03256561 7.54907227 -0.02954102 C8.89519005 -0.03410617 10.24130551 -0.03941274 11.5874176 -0.04542542 C14.40424079 -0.05434376 17.22078028 -0.05194845 20.03759766 -0.04199219 C23.63677331 -0.03050654 27.23496722 -0.05071258 30.83401394 -0.07990932 C33.61284036 -0.09830903 36.39143316 -0.09797145 39.17030525 -0.0922718 C41.13891393 -0.09204507 43.10750077 -0.10890906 45.07603455 -0.12608337 C56.39567659 -0.03793589 56.39567659 -0.03793589 60.92797852 4.40405273 C63.7716452 8.32572887 64.29702485 11.03522229 64.26855469 15.84667969 C64.26832809 17.12763016 64.2681015 18.40858063 64.26786804 19.72834778 C64.25255044 21.11634678 64.23690249 22.50434217 64.22094727 23.89233398 C64.21534777 25.32007908 64.21107934 26.74782996 64.20808411 28.17558289 C64.19666301 31.92233361 64.16721992 35.6687321 64.13397217 39.41534424 C64.09779797 43.916585 64.08409705 48.41794393 64.06661224 52.91928864 C64.03758036 59.74778787 63.9800753 66.57551513 63.92797852 73.40405273 C80.42797852 73.40405273 96.92797852 73.40405273 113.92797852 73.40405273 C113.92797852 65.48405273 113.92797852 57.56405273 113.92797852 49.40405273 C115.04184351 44.39166025 115.88079203 40.88107738 117.92797852 36.40405273 C118.56413086 34.98479492 118.56413086 34.98479492 119.21313477 33.53686523 C126.7241586 18.43112927 139.3643971 8.33916112 154.92797852 2.40405273 C161.58484225 0.36988841 167.68662917 0.11667735 174.62223816 0.1366272 C175.78371363 0.13209608 176.94518909 0.12756497 178.14186078 0.12289655 C181.34817996 0.11246204 184.55435728 0.11092059 187.76068795 0.1132853 C191.22573888 0.11369485 194.69075683 0.10264115 198.15579224 0.09317017 C204.93827717 0.0765884 211.72072732 0.07106188 218.50323083 0.06994541 C224.01971477 0.0689935 229.53618729 0.06487609 235.05266762 0.05854416 C250.71075021 0.0409387 266.36880543 0.03170409 282.02689799 0.03320511 C283.29193065 0.03332498 283.29193065 0.03332498 284.58251953 0.03344727 C285.84910627 0.03356991 285.84910627 0.03356991 287.14128063 0.03369503 C300.81844029 0.03450751 314.49548972 0.01537745 328.17261752 -0.01282947 C342.2336857 -0.04159813 356.2947002 -0.05536754 370.35579854 -0.05364192 C378.24297036 -0.05297934 386.13002664 -0.05841318 394.01717186 -0.07999802 C400.73381805 -0.09826243 407.45029634 -0.10251428 414.16695669 -0.08897917 C417.58941569 -0.08247559 421.01155308 -0.08223659 424.43398094 -0.09968567 C428.15587137 -0.11519052 431.87692736 -0.10579404 435.59880066 -0.09042358 C437.19719521 -0.10585427 437.19719521 -0.10585427 438.82788056 -0.12159669 C454.49750926 0.02057586 468.37750117 6.34774437 479.64672852 17.06420898 C491.49120041 29.21290533 497.24853283 43.31870694 497.19540405 60.18717957 C497.19993517 61.25064977 497.20446628 62.31411998 497.2091347 63.40981656 C497.2217614 66.96156943 497.22015941 70.51316862 497.21850586 74.06494141 C497.22449222 76.61642656 497.23129801 79.1679099 497.23886108 81.71939087 C497.25468524 87.92435973 497.26096906 94.12927262 497.26208584 100.33425977 C497.26303809 105.38163655 497.26715719 110.42900085 497.27348709 115.47637367 C497.29109082 129.80635611 497.30032745 144.13630867 497.29882614 158.466302 C497.29870627 159.62380282 497.29870627 159.62380282 497.29858398 160.8046875 C497.29850222 161.57730391 497.29842046 162.34992032 497.29833622 163.14594934 C497.29752382 175.65913866 497.31665218 188.17220747 497.34486072 200.68536194 C497.37363828 213.55313776 497.3873983 226.4208549 497.38567317 239.28866369 C497.38501089 246.50514367 497.39043151 253.72149735 497.41202927 260.93794823 C497.43222296 267.72846701 497.43151776 274.51867572 497.416996 281.30922318 C497.41491004 283.79517443 497.41959598 286.28114246 497.43171692 288.76706505 C497.52686215 309.64013345 495.2882747 326.32758486 480.26782227 342.12280273 C467.76650622 354.31106413 453.51320576 359.72118163 436.23371887 359.67147827 C435.07224341 359.67600938 433.91076794 359.6805405 432.71409625 359.68520892 C429.50777707 359.69564343 426.30159975 359.69718488 423.09526908 359.69482017 C419.63021816 359.69441062 416.1652002 359.70546432 412.70016479 359.7149353 C405.91767987 359.73151707 399.13522971 359.73704359 392.3527262 359.73816006 C386.83624226 359.73911197 381.31976974 359.74322938 375.80328941 359.74956131 C360.14520682 359.76716677 344.4871516 359.77640138 328.82905904 359.77490036 C327.56402638 359.77478049 327.56402638 359.77478049 326.2734375 359.7746582 C325.00685076 359.77453556 325.00685076 359.77453556 323.7146764 359.77441044 C310.03751674 359.77359795 296.36046731 359.79272802 282.68333951 359.82093494 C268.62227133 359.8497036 254.56125683 359.86347301 240.50015849 359.86174738 C232.61298667 359.86108481 224.72593039 359.86651865 216.83878517 359.88810349 C210.12213898 359.9063679 203.40566069 359.91061975 196.68900035 359.89708464 C193.26654134 359.89058106 189.84440395 359.89034206 186.42197609 359.90779114 C182.70008566 359.92329599 178.97902967 359.91389951 175.25715637 359.89852905 C174.19156 359.90881618 173.12596364 359.91910331 172.02807647 359.92970216 C156.35844777 359.78752961 142.47845586 353.4603611 131.20922852 342.74389648 C117.48366113 328.66578884 113.92797852 314.78469661 113.92797852 295.40405273 C97.42797852 295.40405273 80.92797852 295.40405273 63.92797852 295.40405273 C63.95939941 304.80832764 63.95939941 304.80832764 63.99145508 314.40258789 C64.05764825 335.08592344 64.10208686 355.76926309 64.1352272 376.45267677 C64.15585973 388.99658224 64.18399368 401.54038742 64.22973633 414.08422852 C64.26958276 425.01637538 64.2954063 435.94844963 64.30433249 446.88066709 C64.30955092 452.67017631 64.32183076 458.45947776 64.35089874 464.24892044 C64.37803299 469.69732655 64.38642744 475.14543914 64.38040924 480.5939064 C64.38151036 482.59419855 64.38947595 484.59450044 64.40480042 486.59473419 C64.42469706 489.32553094 64.41991884 492.05521895 64.40899658 494.78604126 C64.42647363 495.97380156 64.42647363 495.97380156 64.44430375 497.18555701 C64.38825512 502.3686803 63.32194032 505.27477922 59.92797852 509.40405273 C56.23303395 512.28729062 53.49070313 512.78435729 48.85595703 512.80810547 C47.65443497 512.82078964 46.4529129 512.83347382 45.21498108 512.84654236 C43.9253093 512.84360672 42.63563751 512.84067108 41.30688477 512.83764648 C39.96076698 512.84221164 38.61465153 512.84751821 37.26853943 512.85353088 C34.45171624 512.86244923 31.63517675 512.86005392 28.81835938 512.85009766 C25.21918372 512.83861201 21.62098981 512.85881804 18.02194309 512.88801479 C15.24311667 512.9064145 12.46452387 512.90607692 9.68565178 512.90037727 C7.7170431 512.90015053 5.74845626 512.91701453 3.77992249 512.93418884 C-7.53971956 512.84604135 -7.53971956 512.84604135 -12.07202148 508.40405273 C-15.33945113 504.12665082 -15.4973669 500.28804881 -15.45233822 495.09059238 C-15.4593281 493.83355002 -15.4593281 493.83355002 -15.46645918 492.55111286 C-15.47845314 489.7302523 -15.46899681 486.90986949 -15.45970154 484.08900452 C-15.46387252 482.05131102 -15.46934874 480.01361985 -15.47602135 477.97593302 C-15.49052548 472.36638996 -15.48621574 466.75699321 -15.47885454 461.14744198 C-15.47413744 455.101673 -15.48661975 449.05593634 -15.49687195 443.01017761 C-15.51309779 431.84749554 -15.51549933 420.68485899 -15.51056696 409.52217135 C-15.50601252 399.20990366 -15.50660554 388.8976534 -15.5124073 378.58538628 C-15.51316416 377.20294318 -15.51392014 375.82050008 -15.51467525 374.43805699 C-15.51582042 372.3549258 -15.5169703 370.27179461 -15.51813449 368.18866343 C-15.528842 348.81759537 -15.53356215 329.44653313 -15.52566433 310.07546329 C-15.52536716 309.34501172 -15.52506998 308.61456014 -15.5247638 307.86197367 C-15.52231478 301.92991719 -15.51970324 295.99786078 -15.51707967 290.06580438 C-15.50697634 266.92437589 -15.51533324 243.78301994 -15.53857422 220.64160156 C-15.56463509 194.65022829 -15.57749792 168.65889871 -15.57038647 142.66751188 C-15.56967039 139.89718625 -15.56899601 137.12686061 -15.56834602 134.35653496 C-15.56817621 133.67439566 -15.56800641 132.99225636 -15.56783145 132.28944618 C-15.56552663 121.98374514 -15.57351417 111.67808461 -15.5866375 101.37239265 C-15.60153204 89.65477615 -15.60203901 77.93723841 -15.58456659 66.21961815 C-15.57602657 60.23816441 -15.57398012 54.25689234 -15.58921814 48.27544785 C-15.6029859 42.80351332 -15.59840446 37.33191746 -15.5789789 31.86000293 C-15.57519418 29.87688345 -15.57821136 27.89373736 -15.58859055 25.91064144 C-15.60166976 23.2211335 -15.59025853 20.53281023 -15.57259274 17.84335423 C-15.58224325 17.0679989 -15.59189376 16.29264357 -15.60183671 15.49379262 C-15.53176208 10.3209817 -14.33349518 7.3916337 -11.07202148 3.40405273 C-7.37707692 0.52081485 -4.6347461 0.02374818 0 0 Z M181.49047852 78.65405273 C178.40092186 84.09167244 177.67782049 89.39666146 177.67401123 95.57666016 C177.67089125 96.26373897 177.66777127 96.95081778 177.66455674 97.65871716 C177.65663099 99.94240798 177.66287897 102.22582906 177.66918945 104.50952148 C177.66647718 106.15434931 177.66291492 107.79917592 177.65856934 109.44400024 C177.64947123 113.89848956 177.65297895 118.35288597 177.65932751 122.80737686 C177.66440085 127.47526545 177.65969234 132.14314624 177.65655518 136.81103516 C177.65291942 144.64902165 177.65770438 152.48697041 177.66723633 160.32495117 C177.67812012 169.37893414 177.67459427 178.43282703 177.66358352 187.48680782 C177.65449952 195.26874276 177.65323081 203.05065062 177.65846086 210.83258915 C177.66157443 215.47673582 177.66200673 220.12084019 177.65538788 224.76498413 C177.64959887 229.1316689 177.65363977 233.49823783 177.66517639 237.86491013 C177.66781466 239.46485578 177.66707215 241.06481124 177.66265106 242.66475296 C177.65716112 244.8537808 177.6640711 247.04244071 177.67401123 249.23144531 C177.67476528 250.4547908 177.67551933 251.67813629 177.67629623 252.93855286 C178.05995792 258.22132248 178.86506074 262.17760915 182.36547852 266.21655273 C187.98198524 271.01113164 192.17113075 271.5270713 199.39208984 271.5300293 C200.6814595 271.53383606 201.97082916 271.53764282 203.29927063 271.54156494 C203.9844961 271.5417588 204.66972157 271.54195267 205.37571144 271.5421524 C208.29186321 271.54560283 211.20779897 271.56702247 214.12387371 271.58738327 C219.53931593 271.62514215 224.9545279 271.65668926 230.37011719 271.65454102 C234.14989269 271.65374335 237.92887373 271.67756259 241.70844078 271.71642303 C243.13258965 271.72673148 244.556832 271.72852181 245.98099709 271.72077179 C259.28348404 271.65568229 272.26831857 274.12750371 283.42797852 281.77905273 C283.99419922 282.1619043 284.56041992 282.54475586 285.14379883 282.93920898 C289.1686417 285.71305605 292.91369277 288.74715829 296.47485352 292.09155273 C299.77314334 295.07065322 303.15217158 294.73841243 307.40454102 294.67749023 C311.90928072 294.18936054 314.45594131 291.73145746 317.71704102 288.79077148 C331.85926904 276.08530368 347.10438742 271.62324661 365.90063477 271.76733398 C367.36316938 271.75926112 368.82569221 271.74872442 370.28819275 271.73588562 C374.08470096 271.70772513 377.88065853 271.7066965 381.67724609 271.71374512 C387.7818204 271.72115436 393.88622705 271.68952948 399.99065971 271.65129662 C402.10393474 271.64252776 404.21682006 271.64770652 406.33009338 271.65486145 C407.61931198 271.65113022 408.90853058 271.64739899 410.23681641 271.64355469 C411.92648277 271.64619072 411.92648277 271.64619072 413.65028381 271.64888 C418.85260283 271.260293 422.76586351 270.41121907 426.74047852 266.96655273 C431.66297268 261.20020243 432.05154788 256.88767445 432.06169128 249.47195435 C432.06508962 248.44389941 432.06508962 248.44389941 432.06855661 247.39507568 C432.07487188 245.10524476 432.07406884 242.81547341 432.07324219 240.52563477 C432.07623521 238.88110274 432.07963807 237.23657142 432.0834198 235.59204102 C432.09224916 231.12919574 432.09459746 226.66636965 432.09523559 222.20351648 C432.09594666 219.41422864 432.09808207 216.62494566 432.1007328 213.83565903 C432.10998251 204.10178061 432.11406813 194.36791587 432.11328125 184.6340332 C432.11268047 175.56532891 432.12323338 166.49668409 432.13902491 157.42799485 C432.15210637 149.63761272 432.1574649 141.84725002 432.15682584 134.05685699 C432.15657104 129.40596734 432.15941225 124.75513056 432.17000389 120.10425186 C432.1796951 115.72939539 432.17975702 111.35464225 432.17248726 106.9797821 C432.17144271 105.37660954 432.1737966 103.7734305 432.17984772 102.17026901 C432.1875891 99.9767647 432.18290889 97.78361532 432.17521667 95.59011841 C432.17576144 94.36417528 432.17630621 93.13823215 432.17686749 91.87513924 C431.79783198 86.58898689 430.9928423 82.63274172 427.49047852 78.59155273 C422.46615198 74.3024935 418.62702781 73.28946525 412.14794922 73.25878906 C411.22540848 73.25240921 410.30286774 73.24602936 409.35237122 73.23945618 C407.86805855 73.23778694 407.86805855 73.23778694 406.35375977 73.23608398 C405.31591843 73.23275558 404.27807709 73.22942719 403.20878601 73.22599792 C401.00735923 73.2209376 398.80592478 73.21858932 396.60449219 73.21875 C393.2974712 73.21658996 389.99079871 73.19849866 386.68383789 73.17944336 C359.85090745 73.1061818 331.97089818 75.43774834 310.82250977 93.95874023 C308.45701358 95.76334557 306.8742881 96.81479082 303.92797852 97.40405273 C301.55308674 96.04431078 299.70702862 94.74352624 297.61547852 93.02905273 C274.37501285 75.28866526 248.4970624 73.03062975 220.12939453 73.08837891 C216.83862319 73.09157885 213.54872023 73.06783673 210.25805664 73.04272461 C208.13631296 73.04045453 206.01456691 73.03974676 203.89282227 73.04077148 C202.92392563 73.03156174 201.95502899 73.02235199 200.95677185 73.01286316 C193.87843542 73.06067017 186.87500548 73.68372015 181.49047852 78.65405273 Z M63.92797852 103.40405273 C63.92797852 156.86405273 63.92797852 210.32405273 63.92797852 265.40405273 C80.42797852 265.40405273 96.92797852 265.40405273 113.92797852 265.40405273 C113.92797852 211.94405273 113.92797852 158.48405273 113.92797852 103.40405273 C97.42797852 103.40405273 80.92797852 103.40405273 63.92797852 103.40405273 Z " fill="#000000" transform="translate(15.072021484375,-0.404052734375)"/>
<path d="M0 0 C0 45.54 0 91.08 0 138 C-13.53 138.33 -27.06 138.66 -41 139 C-53.549926 140.39443622 -63.40738162 142.02101547 -75 146 C-77.33120965 146.67405524 -79.66427924 147.34174668 -82 148 C-82.1871126 131.57957603 -82.32806677 115.15949929 -82.41449738 98.73826599 C-82.45570054 91.11307072 -82.51184542 83.48853888 -82.60351562 75.86376953 C-82.68340371 69.21580615 -82.7349007 62.56832333 -82.75270796 55.91989326 C-82.7631134 52.40123098 -82.78745833 48.88394311 -82.84584045 45.36572266 C-82.91057847 41.43236074 -82.91190968 37.50032742 -82.90820312 33.56640625 C-82.93696533 32.40762466 -82.96572754 31.24884308 -82.99536133 30.0549469 C-82.93443315 24.07369107 -82.41603 20.71708593 -78.13464355 16.36181641 C-76.78867588 15.20267755 -75.41246144 14.07711864 -74 13 C-72.989375 12.22269531 -71.97875 11.44539063 -70.9375 10.64453125 C-47.55462245 -3.93867297 -28.92997324 0 0 0 Z " fill="#000000" transform="translate(417,103)"/>
<path d="M0 0 C60.15789474 0 60.15789474 0 81 20 C82 21 82 21 82.12304783 23.1064539 C82.12212604 24.04207377 82.12120424 24.97769365 82.12025452 25.94166565 C82.12231651 27.54662399 82.12231651 27.54662399 82.12442017 29.18400574 C82.11902725 30.95992851 82.11902725 30.95992851 82.11352539 32.77172852 C82.11367142 34.010578 82.11381744 35.24942749 82.1139679 36.52581787 C82.11338892 39.93269833 82.10835959 43.33951884 82.10139394 46.74638867 C82.09515993 50.30316826 82.09455656 53.85994858 82.09336853 57.41673279 C82.09025535 64.15636582 82.08204215 70.89598271 82.07201904 77.63560861 C82.06085748 85.30658398 82.05534735 92.97756011 82.05032361 100.64854157 C82.03985952 116.43237041 82.02226035 132.21618313 82 148 C81.08304604 147.69425804 81.08304604 147.69425804 80.14756775 147.38233948 C79.34211014 147.11380661 78.53665253 146.84527374 77.70678711 146.56860352 C76.90985947 146.30290054 76.11293182 146.03719757 75.29185486 145.76344299 C50.63464034 137.54984361 26.08436808 138.6362041 0 138 C0 92.46 0 46.92 0 0 Z " fill="#000000" transform="translate(223,103)"/>
</svg>
