<?xml version="1.0" encoding="UTF-8"?>
<svg version="1.1" xmlns="http://www.w3.org/2000/svg" width="512" height="512">
<path d="M0 0 C1.15594162 -0.00365067 2.31188324 -0.00730133 3.50285339 -0.01106262 C7.30006909 -0.01912549 11.09685213 -0.00558785 14.89404297 0.0090332 C17.55427644 0.00955253 20.21449395 0.00908384 22.87472534 0.00752258 C28.4443672 0.00664228 34.01388675 0.01765828 39.58349609 0.03613281 C45.98067236 0.05723386 52.37766889 0.06082199 58.7748729 0.05457085 C64.97279122 0.04882908 71.17064759 0.05458294 77.36855698 0.0657444 C79.98453395 0.0695656 82.60051624 0.07075755 85.21649551 0.06915855 C129.25292553 0.06465988 165.49623746 10.44806148 197.31982422 42.24145508 C202.38845333 47.4638293 206.54173294 52.93821028 210.40966797 59.09106445 C210.93818359 59.84387695 211.46669922 60.59668945 212.01123047 61.37231445 C212.67123047 61.37231445 213.33123047 61.37231445 214.01123047 61.37231445 C215.51848911 59.45934881 215.51848911 59.45934881 217.07373047 56.99731445 C220.94208296 51.32266514 225.29537376 46.35319451 230.01123047 41.37231445 C230.76017578 40.55891602 231.50912109 39.74551758 232.28076172 38.9074707 C251.87910437 18.33408613 281.98956566 2.36378814 310.75732422 1.22387695 C315.1938565 1.42626378 317.46609896 3.04791601 320.76123047 5.87231445 C323.31809144 8.94054762 323.35568708 12.44637496 323.28466797 16.30981445 C322.81615548 19.8437372 321.37326941 21.76801511 319.01123047 24.37231445 C313.99247495 26.8723172 309.23973212 28.03985154 303.76123047 29.05981445 C281.81667894 33.61326901 263.73921824 44.69113617 248.01123047 60.37231445 C247.33060547 61.02973633 246.64998047 61.6871582 245.94873047 62.36450195 C243.80092654 64.59284853 241.9354499 66.94523084 240.01123047 69.37231445 C239.50867977 69.9698596 239.00612907 70.56740474 238.48834956 71.18305731 C226.55958954 85.67447337 225.13931481 98.40599801 225.50237739 116.71835184 C225.55936922 120.33627177 225.53946111 123.95396106 225.52964783 127.57220459 C225.52288346 133.81718495 225.56310802 140.06037798 225.63673973 146.30490875 C225.74312016 155.33273651 225.77632128 164.35971424 225.79258362 173.38810071 C225.82092352 188.04120417 225.90712756 202.69335825 226.03051758 217.34594727 C226.15013906 231.56595158 226.24201297 245.78569656 226.29711914 260.00610352 C226.30053455 260.88499974 226.30394995 261.76389596 226.30746885 262.6694254 C226.32443631 267.07929619 226.34086405 271.48916879 226.3570236 275.89904261 C226.49144036 312.39080298 226.72009981 348.8814843 227.01123047 385.37231445 C227.76636429 384.61242218 228.52149811 383.85252991 229.29951477 383.0696106 C230.30012599 382.06515102 231.30079535 381.06074936 232.30151367 380.05639648 C232.79804695 379.55642654 233.29458023 379.0564566 233.80615997 378.54133606 C262.4945267 349.7748602 300.72495968 341.2449845 340.0508194 341.12232685 C342.36917199 341.12177347 344.68752655 341.12388171 347.00587463 341.12848473 C350.69718088 341.13417534 354.38818422 341.12476858 358.07946777 341.11128235 C368.55592559 341.07451546 379.03226813 341.05570252 389.50878906 341.06689453 C395.95869873 341.0727354 402.4081669 341.05456051 408.85798645 341.02100563 C411.30441555 341.01305618 413.75089282 341.01432234 416.1973114 341.02503014 C419.59997228 341.03931303 423.00122609 341.02314039 426.40380859 341 C427.91230629 341.0176516 427.91230629 341.0176516 429.45127869 341.03565979 C434.16388317 340.97265822 436.29544796 340.92967101 440.11169434 337.95808411 C442.77894748 334.32724912 443.13747161 332.60558384 443.14926147 328.15422058 C443.15744148 326.49493279 443.15744148 326.49493279 443.16578674 324.80212402 C443.16682907 323.58287231 443.1678714 322.36362061 443.16894531 321.10742188 C443.17674438 319.142992 443.18454751 317.17856215 443.19250321 315.21413291 C443.20022444 313.09869623 443.20560283 310.98326391 443.21046066 308.86781883 C443.22113314 304.45979698 443.24137629 300.0518521 443.26358032 295.64387512 C443.3255288 283.1079969 443.37951063 270.57212286 443.41259766 258.03613281 C443.43094466 251.11526964 443.45988207 244.19453502 443.50060236 237.27376634 C443.52167229 233.6110435 443.53712958 229.94848267 443.53940964 226.28569603 C443.54195667 222.19874729 443.56742116 218.11224895 443.59472656 214.02539062 C443.59172043 212.81221161 443.58871429 211.59903259 443.58561707 210.34909058 C443.59671005 209.23443924 443.60780304 208.1197879 443.61923218 206.97135925 C443.62254232 206.00515246 443.62585247 205.03894567 443.62926292 204.04345989 C444.23545661 199.80427382 446.28797973 197.15938144 449.13623047 194.05981445 C453.14458174 191.70708653 456.46839592 191.56452169 461.01123047 192.37231445 C464.81383337 194.37732325 466.62913888 195.79917708 469.01123047 199.37231445 C469.26570606 201.88713264 469.26570606 201.88713264 469.27192688 204.94949341 C469.27901169 206.11017838 469.2860965 207.27086334 469.293396 208.46672058 C469.29091858 209.741548 469.28844116 211.01637543 469.28588867 212.32983398 C469.29023572 213.6851174 469.29541885 215.04039836 469.30137634 216.39567566 C469.3147849 220.07989672 469.3153425 223.7640153 469.31281304 227.44825602 C469.31174364 230.52688831 469.31662642 233.60549984 469.32141846 236.68412769 C469.3325221 243.95325258 469.3329476 251.22232581 469.3269043 258.49145508 C469.32087584 265.97757482 469.33314471 273.46350608 469.35447437 280.94959366 C469.37212928 287.383724 469.37808523 293.81779459 469.37483662 300.25194824 C469.3730283 304.0914197 469.37561376 307.93075701 469.38955116 311.77020645 C469.40218674 315.38671113 469.40013176 319.00292428 469.38714027 322.61942482 C469.38367057 324.56787002 469.39491291 326.51632435 469.40670776 328.46473694 C469.3343578 340.61127204 466.5385611 348.49405207 458.19482422 357.28637695 C450.88928728 364.22294738 441.91907887 367.48101226 431.8860321 367.51034546 C430.87575455 367.5157988 429.86547699 367.52125214 428.82458496 367.52687073 C427.72690796 367.52791306 426.62923096 367.52895538 425.49829102 367.5300293 C424.33332596 367.53511002 423.1683609 367.54019073 421.96809387 367.54542542 C419.43797748 367.55612237 416.90785166 367.56474519 414.37772179 367.57154465 C410.36128587 367.58335981 406.34495604 367.60254599 402.3285675 367.62466431 C390.90829302 367.68638254 379.48802234 367.74040098 368.06762695 367.77368164 C361.75677659 367.79215246 355.44606402 367.82124807 349.13531524 367.86168635 C345.80479292 367.88256274 342.47459748 367.89648682 339.14398766 367.90049362 C321.90318398 367.92341682 305.66740946 368.25252631 289.38623047 374.55981445 C288.59482666 374.86024658 287.80342285 375.16067871 286.98803711 375.47021484 C275.43826046 380.00267137 265.40362729 386.23967883 256.01123047 394.37231445 C255.24166016 395.00911133 254.47208984 395.6459082 253.67919922 396.30200195 C246.3748631 402.49886633 240.86939733 409.49906669 235.64404297 417.4699707 C234.73271606 418.85889526 234.73271606 418.85889526 233.80297852 420.27587891 C232.58987383 422.13810241 231.38772274 424.00751909 230.19799805 425.88476562 C226.38771605 431.7695525 222.41828648 437.16878645 216.01123047 440.37231445 C211.59452028 440.49379568 208.05309409 440.13465369 204.44873047 437.49731445 C199.54818086 431.21455854 194.89141723 424.87965943 190.76123047 418.05981445 C174.98311796 393.01519142 150.23508336 376.95763548 121.70263672 370.1340332 C114.10090694 368.5654223 106.97640791 368.22672603 99.22363281 368.23046875 C98.05355682 368.22699432 96.88348083 368.2235199 95.677948 368.21994019 C93.14349209 368.21260443 90.60902985 368.20724747 88.07456589 368.20364952 C84.05459021 368.19645702 80.03473443 368.18111774 76.01480103 368.16230774 C74.63351255 368.15597126 73.25222402 368.14964562 71.87093544 368.14333057 C71.17940856 368.14016476 70.48788168 368.13699895 69.77539945 368.13373721 C60.42743005 368.09182001 51.07950247 368.05871533 41.73144531 368.04638672 C35.41142482 368.03796642 29.0916211 368.01533214 22.77170908 367.97703105 C19.43619407 367.95740589 16.10128245 367.94705611 12.76566696 367.94986534 C9.03518264 367.95223386 5.30556232 367.92993273 1.57519531 367.90234375 C0.49214111 367.90894516 -0.59091309 367.91554657 -1.70678711 367.92234802 C-14.1521142 367.77232694 -24.76916356 364.52460475 -33.66455078 355.7121582 C-39.68083284 349.15844152 -43.10591093 341.99308494 -43.12299061 333.06667137 C-43.12744845 331.98502154 -43.1319063 330.9033717 -43.13649923 329.7889446 C-43.13631486 328.60122319 -43.1361305 327.41350178 -43.13594055 326.18978882 C-43.13961724 324.92752555 -43.14329393 323.66526227 -43.14708203 322.3647486 C-43.15709273 318.85860265 -43.16081732 315.35247383 -43.16347134 311.84631562 C-43.16737716 308.06564753 -43.17695531 304.28499295 -43.1856842 300.5043335 C-43.20544081 291.37276583 -43.21551382 282.24119706 -43.22441199 273.10961336 C-43.22879623 268.80833103 -43.23416269 264.50704994 -43.23940086 260.20576859 C-43.25641237 245.90550428 -43.27090626 231.60524075 -43.2781496 217.30496788 C-43.28005947 213.59450657 -43.2819798 209.88404527 -43.28393555 206.17358398 C-43.28441929 205.25137852 -43.28490303 204.32917305 -43.28540143 203.37902196 C-43.2937007 188.44185091 -43.31903623 173.50475997 -43.35151622 158.5676239 C-43.38459779 143.22865904 -43.40259936 127.88973488 -43.40579385 112.55073416 C-43.40795793 103.93980226 -43.41669169 95.32898717 -43.44225502 86.71809006 C-43.46397702 79.38423453 -43.47200508 72.05052421 -43.46228824 64.71664016 C-43.45774785 60.97661784 -43.45961422 57.23689502 -43.47904968 53.49691391 C-43.49996678 49.43664665 -43.48968233 45.37704164 -43.47651672 41.31674194 C-43.48748597 40.14240487 -43.49845522 38.96806779 -43.50975686 37.75814474 C-43.4209203 26.39801693 -40.20020369 18.74398246 -32.34423828 10.56762695 C-22.99875151 1.85757129 -12.46765304 -0.08903581 0 0 Z M-16.15037346 30.7360878 C-19.1412753 35.49920014 -18.53919547 40.96722407 -18.4967041 46.40466309 C-18.50294406 47.6265384 -18.50918403 48.84841371 -18.51561308 50.10731554 C-18.52879738 53.49156082 -18.52406679 56.87491679 -18.51166821 60.25910783 C-18.50261452 63.91153396 -18.51658899 67.56388262 -18.52758789 71.21629333 C-18.54537437 78.36839868 -18.5415326 85.52033611 -18.52993733 92.67244804 C-18.52090377 98.48510165 -18.51967867 104.2977082 -18.52403259 110.11036682 C-18.52464552 110.93765456 -18.52525846 111.76494229 -18.52588996 112.61729935 C-18.52716886 114.29791877 -18.52846572 115.97853818 -18.52978033 117.65915757 C-18.5411865 133.41833132 -18.52807185 149.17741199 -18.50657886 164.93657047 C-18.48870784 178.45865544 -18.49181193 191.98060305 -18.51025391 205.50268555 C-18.53165997 221.20546401 -18.54008786 236.90816089 -18.52780485 252.6109519 C-18.52653065 254.28538862 -18.52527317 255.95982534 -18.52403259 257.63426208 C-18.52341549 258.45811686 -18.52279839 259.28197163 -18.52216259 260.13079169 C-18.51870889 265.93646263 -18.52453844 271.74208183 -18.53395081 277.54774475 C-18.54516925 284.62294677 -18.54213409 291.69797127 -18.52082783 298.77315295 C-18.51031521 302.38306232 -18.5061989 305.99267574 -18.51942444 309.60258293 C-18.53354225 313.51521127 -18.51668531 317.42735496 -18.4967041 321.33996582 C-18.50562699 322.48178959 -18.51454988 323.62361337 -18.52374315 324.80003786 C-18.46262363 330.95114498 -18.19628345 334.74083125 -13.98876953 339.37231445 C-10.8316005 341.47709381 -10.08387225 341.6241673 -6.47940063 341.6373291 C-5.55482559 341.64560226 -4.63025055 341.65387543 -3.67765808 341.66239929 C-2.15837456 341.66092644 -2.15837456 341.66092644 -0.60839844 341.65942383 C0.46046097 341.66625687 1.52932037 341.6730899 2.63056946 341.68013 C4.95825464 341.69374122 7.28596994 341.70277955 9.61368942 341.70783997 C13.31634583 341.71613542 17.01875632 341.73665601 20.72134399 341.76037598 C28.60959967 341.80867941 36.49789209 341.84151577 44.38623047 341.87231445 C53.47058157 341.90815924 62.55481634 341.95058375 71.63905716 342.008255 C75.25282713 342.02804775 78.8665038 342.03659294 82.48031616 342.04455566 C92.86842004 342.09149015 103.18494713 342.29240381 113.53320312 343.25708008 C114.3460848 343.33266396 115.15896648 343.40824783 115.99648094 343.48612213 C131.20176314 345.08438918 145.36293374 349.60152287 159.01123047 356.37231445 C160.15205078 356.92918945 161.29287109 357.48606445 162.46826172 358.05981445 C173.37555549 363.64931731 182.69890847 370.9175827 191.65966797 379.23168945 C193.46346147 380.87368088 195.28215941 382.450172 197.15820312 384.00610352 C198.09970215 384.78695313 199.04120117 385.56780273 200.01123047 386.37231445 C200.33233887 348.89402392 200.57870031 311.41594217 200.72614508 273.9365521 C200.74365299 269.50229551 200.76177369 265.06804162 200.78027344 260.63378906 C200.78394578 259.75108499 200.78761813 258.86838093 200.79140176 257.95892825 C200.85216397 243.70430115 200.96245903 229.45047213 201.09136961 215.19631699 C201.22273141 200.54791469 201.30014532 185.89992759 201.3284694 171.25096053 C201.34758995 162.22606121 201.40775735 153.20341822 201.52206101 144.17921432 C201.59661268 137.9737028 201.61831147 131.76934119 201.60024975 125.56341539 C201.59136311 121.99277689 201.60403382 118.42605144 201.68010712 114.85612679 C202.07394315 95.41081364 198.78597449 83.2365244 186.01123047 68.37231445 C185.46942005 67.7248956 184.92760963 67.07747674 184.36938071 66.41043913 C181.40553331 62.88357193 178.31344305 59.58419296 175.01123047 56.37231445 C174.20427734 55.56793945 173.39732422 54.76356445 172.56591797 53.93481445 C166.33643267 48.00578664 159.48955505 43.57942912 152.01123047 39.37231445 C151.04314453 38.82575195 150.07505859 38.27918945 149.07763672 37.71606445 C126.11882798 25.50459495 101.72049233 25.21063716 76.36279297 25.16918945 C75.19193523 25.16636208 74.0210775 25.1635347 72.81473923 25.16062164 C66.63397756 25.14571762 60.45323877 25.13642929 54.27246094 25.13208008 C47.90053027 25.12656873 41.5288104 25.10245982 35.15694618 25.07410812 C30.23956684 25.05548708 25.32223874 25.0502767 20.40482712 25.0487442 C18.05492357 25.04572243 15.70502082 25.03771001 13.35515213 25.02455902 C10.07449339 25.00748944 6.7943571 25.00937976 3.51367188 25.01586914 C2.54938263 25.00665436 1.58509338 24.99743958 0.59158325 24.98794556 C-6.16482539 25.02977411 -11.35147343 25.48835863 -16.15037346 30.7360878 Z " fill="#D17AB4" transform="translate(42.98876953125,35.627685546875)"/>
<path d="M0 0 C1.29389648 -0.00287018 2.58779297 -0.00574036 3.92089844 -0.00869751 C6.64399108 -0.01308984 9.36678606 -0.00679097 12.08984375 0.00732422 C15.55271103 0.02441475 19.01488039 0.01455674 22.47772217 -0.00339317 C25.81853501 -0.01693776 29.15916744 -0.00741078 32.5 0 C34.34416504 -0.00910904 34.34416504 -0.00910904 36.22558594 -0.0184021 C48.80044105 0.08338918 58.59061547 3.02467473 67.9375 11.5859375 C73.47278787 17.3492235 77.35210998 25.19457271 77.40390015 33.21633911 C77.41250061 34.208741 77.42110107 35.20114288 77.42996216 36.22361755 C77.43422211 37.31143021 77.43848206 38.39924286 77.44287109 39.52001953 C77.45513733 41.24000404 77.45513733 41.24000404 77.46765137 42.99473572 C77.49251167 46.79856849 77.50902435 50.60236388 77.5234375 54.40625 C77.52876118 55.70514034 77.53408485 57.00403069 77.53956985 58.34228134 C77.56080185 63.80336218 77.5799306 69.26443088 77.59119225 74.72554207 C77.60740897 82.53689061 77.64053193 90.34773998 77.69759309 98.15890038 C77.73639161 103.65884363 77.7558368 109.15865395 77.76111281 114.65873039 C77.76475402 117.93949378 77.77916945 121.2196046 77.80921555 124.50024796 C77.84088129 128.16737841 77.84090055 131.83325664 77.83349609 135.50048828 C77.84990143 136.57615555 77.86630676 137.65182281 77.88320923 138.76008606 C77.81719049 146.77045301 75.81697082 152.66652006 70.22265625 158.51953125 C62.77493673 163.65221321 56.34067858 165.52429229 47.25 164.3984375 C41.39495482 162.68273436 36.06809115 159.84374165 30.69921875 156.9921875 C29.50437866 156.36751587 29.50437866 156.36751587 28.28540039 155.73022461 C26.70240441 154.89663846 25.12939508 154.0437491 23.56811523 153.17016602 C22.83665283 152.78272217 22.10519043 152.39527832 21.3515625 151.99609375 C20.70525879 151.64039307 20.05895508 151.28469238 19.39306641 150.91821289 C14.68694767 149.7767995 9.9029145 152.93967002 5.73828125 154.96484375 C4.73345703 155.45017578 3.72863281 155.93550781 2.69335938 156.43554688 C1.66017578 156.93892578 0.62699219 157.44230469 -0.4375 157.9609375 C-2.50314311 158.96381296 -4.56951662 159.9651858 -6.63671875 160.96484375 C-7.54639404 161.40771729 -8.45606934 161.85059082 -9.39331055 162.30688477 C-15.86149036 165.302765 -23.29222414 165.52433292 -30.0625 163.2109375 C-37.08582324 160.08627533 -40.4128209 156.02798893 -43.6936779 149.24217033 C-45.48574144 144.41774233 -45.43836473 139.79471989 -45.38110352 134.69750977 C-45.38825882 133.57255096 -45.39541412 132.44759216 -45.40278625 131.2885437 C-45.41959362 127.596888 -45.40031419 123.90646041 -45.37890625 120.21484375 C-45.37973573 117.63231812 -45.38219808 115.04979254 -45.38621521 112.4672699 C-45.38906789 107.06483608 -45.37496067 101.66285015 -45.34692383 96.26049805 C-45.31489447 90.04144227 -45.31488597 83.82301406 -45.3321386 77.60391384 C-45.34808204 71.58851554 -45.34111823 65.57340579 -45.32420158 59.55799675 C-45.3190399 57.01324918 -45.31947695 54.46848357 -45.32574654 51.92373848 C-45.33123354 48.35835831 -45.31070958 44.79402093 -45.28344727 41.22875977 C-45.28997314 40.18998184 -45.29649902 39.15120392 -45.30322266 38.08094788 C-45.15919133 26.93006172 -41.87117083 18.55232624 -34.10546875 10.55859375 C-24.12214921 1.40307849 -13.18627925 -0.0651321 0 0 Z M-17.91156006 30.87481689 C-20.37770635 35.60152224 -20.28351961 39.37519646 -20.20410156 44.62646484 C-20.20468567 45.64171234 -20.20526978 46.65695984 -20.20587158 47.70297241 C-20.20309258 51.04712525 -20.17200816 54.39037853 -20.140625 57.734375 C-20.13316199 60.05750034 -20.12746934 62.38063198 -20.12347412 64.70376587 C-20.10822271 70.80964628 -20.06894454 76.91514437 -20.0246582 83.02087402 C-19.98369523 89.25474882 -19.96546087 95.48868557 -19.9453125 101.72265625 C-19.9024503 113.94808438 -19.83420446 126.17322911 -19.75 138.3984375 C-15.50835592 137.02598542 -11.6992247 135.45023457 -7.7578125 133.359375 C-6.64019531 132.77929688 -5.52257812 132.19921875 -4.37109375 131.6015625 C-2.04327281 130.38433323 0.2796936 129.15777409 2.59765625 127.921875 C3.71785156 127.344375 4.83804688 126.766875 5.9921875 126.171875 C7.0013623 125.63997559 8.01053711 125.10807617 9.05029297 124.56005859 C14.53808623 122.56777107 18.5438172 122.75130428 23.88037109 124.77539062 C25.10303826 125.3939952 26.31727986 126.02947958 27.5234375 126.6796875 C28.17325592 127.01262817 28.82307434 127.34556885 29.49258423 127.68859863 C31.54492665 128.74352223 33.58502903 129.81981552 35.625 130.8984375 C37.68838278 131.97266543 39.75402742 133.04230248 41.82168579 134.10827637 C43.10231511 134.77026691 44.38008807 135.4378188 45.65463257 136.1114502 C48.78397018 137.84803276 48.78397018 137.84803276 52.25 138.3984375 C52.34268347 124.94220508 52.41375693 111.48604861 52.45724869 98.029562 C52.47812265 91.78114929 52.50643747 85.53295498 52.55175781 79.28466797 C52.59522137 73.25463336 52.61913855 67.22480883 52.62950897 61.19462967 C52.63689934 58.89411741 52.65133093 56.59361664 52.67292023 54.29319382 C52.70196013 51.07069814 52.70595564 47.84907033 52.70410156 44.62646484 C52.71848267 43.67555969 52.73286377 42.72465454 52.74768066 41.74493408 C52.71277138 36.13700628 52.08794645 32.79535975 48.25 28.3984375 C42.34639955 24.80448794 36.65289506 24.96025487 29.875 25 C28.7917041 24.99712982 27.7084082 24.99425964 26.59228516 24.99130249 C24.30956497 24.98926758 22.02682712 24.9947572 19.74414062 25.00732422 C16.26131999 25.0233853 12.77965978 25.00745525 9.296875 24.98828125 C7.07291412 24.99026378 4.84895396 24.99410766 2.625 25 C1.07159912 24.99089096 1.07159912 24.99089096 -0.51318359 24.9815979 C-7.52915725 25.04944268 -13.03188388 25.28444272 -17.91156006 30.87481689 Z " fill="#C364C8" transform="translate(434.75,35.6015625)"/>
<path d="M0 0 C0.73659843 -0.00438225 1.47319686 -0.00876451 2.23211646 -0.01327956 C4.71323886 -0.02668978 7.19432573 -0.03285139 9.67547607 -0.03897095 C11.44926617 -0.04687018 13.22305465 -0.05513901 14.99684143 -0.06375122 C20.83338888 -0.08999244 26.66994358 -0.10528111 32.50653076 -0.11953735 C34.51417801 -0.1248962 36.5218252 -0.13027371 38.52947235 -0.13566971 C46.87970991 -0.15730166 55.22994551 -0.17603898 63.58020401 -0.1872921 C75.55501733 -0.20353478 87.52950632 -0.23671673 99.50419736 -0.29369295 C107.91954852 -0.33237102 116.33481285 -0.35192227 124.75025058 -0.35721266 C129.77854563 -0.36086909 134.80649494 -0.37292128 139.83469391 -0.4053154 C144.5658512 -0.43535839 149.29645288 -0.44172135 154.02768517 -0.42993164 C155.76352444 -0.42971059 157.49938921 -0.43804186 159.23513985 -0.45558548 C161.60705506 -0.47825261 163.97695136 -0.46999561 166.34887695 -0.45410156 C167.37700748 -0.47492469 167.37700748 -0.47492469 168.42590833 -0.49616849 C173.92769595 -0.40545749 176.18491862 1.4189686 179.92840576 5.15390015 C181.91780468 8.84139315 182.08597475 12.26100923 181.36590576 16.34140015 C179.14020925 20.69602375 176.61016458 23.59331388 171.92840576 25.15390015 C169.58564657 25.25488322 167.24006339 25.2933234 164.8951416 25.30107117 C163.81452198 25.3065862 163.81452198 25.3065862 162.71207166 25.31221265 C160.29166283 25.32324905 157.87129693 25.32709324 155.4508667 25.3309021 C153.71796024 25.33716677 151.98505513 25.34381358 150.25215149 25.35081482 C144.5557041 25.37185665 138.85925643 25.38221711 133.16278076 25.3921814 C131.20189652 25.39622886 129.24101243 25.40034578 127.28012848 25.40453148 C118.06812955 25.42358317 108.85613864 25.43781443 99.64412379 25.44614345 C89.00981464 25.45591713 78.37571356 25.4822402 67.74147773 25.52264434 C59.52226578 25.55280132 51.30311349 25.56761192 43.08384728 25.57092446 C38.17463722 25.57327538 33.26564945 25.58224129 28.35649872 25.60738564 C23.73700235 25.6306641 19.1178747 25.6349005 14.49833488 25.62462425 C12.80484987 25.62412873 11.11134671 25.63045403 9.41791725 25.6441803 C7.10137266 25.66190348 4.78615072 25.65479217 2.46960449 25.64164734 C1.17469463 25.64403569 -0.12021523 25.64642405 -1.45436478 25.64888477 C-5.96133275 25.0321476 -8.31078561 23.67706298 -12.07159424 21.15390015 C-15.03813472 17.06155344 -14.84136609 11.99355487 -14.07159424 7.15390015 C-10.65825072 0.82208447 -6.67938424 0.00478828 0 0 Z " fill="#C467C5" transform="translate(14.07159423828125,450.8460998535156)"/>
<path d="M0 0 C1.10874256 -0.01041829 1.10874256 -0.01041829 2.23988396 -0.02104706 C4.71199418 -0.03931573 7.18314458 -0.02905366 9.6552887 -0.01878357 C11.42952696 -0.02584215 13.20375919 -0.03458691 14.97798157 -0.04489136 C19.79414904 -0.06740229 24.60998816 -0.0644416 29.42618823 -0.05556989 C33.44715739 -0.05046139 37.46806477 -0.05775146 41.48902756 -0.06504196 C50.97500412 -0.08204648 60.46081983 -0.07846965 69.9467926 -0.06175232 C79.73251985 -0.04482971 89.51780108 -0.06066623 99.30347961 -0.0929752 C107.706186 -0.11966689 116.10875351 -0.12694825 124.51149803 -0.11846012 C129.52964142 -0.11352976 134.54751642 -0.11575246 139.56562614 -0.13624763 C144.28457679 -0.15459812 149.00288564 -0.14865385 153.72180176 -0.12404823 C155.4527816 -0.11903834 157.18381028 -0.12253478 158.91475105 -0.13519669 C161.28000516 -0.15112869 163.64314618 -0.13617806 166.00830078 -0.11352539 C166.69167478 -0.12536112 167.37504877 -0.13719685 168.07913107 -0.14939123 C173.56678415 -0.04277194 175.83346553 1.78669081 179.56764221 5.5146637 C181.41369445 9.20676818 180.91161377 13.47618279 180.56764221 17.5146637 C179.20613184 21.06971856 178.16017445 22.15639608 174.91300201 24.11976051 C171.07300074 25.72091265 168.31942163 25.89197912 164.16688538 25.89561462 C163.44320345 25.9002946 162.71952153 25.90497457 161.97390985 25.90979636 C159.5603035 25.92171771 157.14726794 25.91230064 154.73365784 25.90284729 C152.99868438 25.90691427 151.26371352 25.91225686 149.52874756 25.91877747 C144.82423985 25.93244182 140.11992974 25.92715604 135.41541862 25.91764021 C130.48946988 25.91003907 125.56353792 25.91709049 120.6375885 25.92179871 C112.36570705 25.92725493 104.09390599 25.92006813 95.82203674 25.90577698 C86.26189879 25.88945073 76.70195278 25.89473933 67.14181948 25.91125619 C58.93019103 25.92487484 50.71862033 25.92678886 42.50698423 25.91894019 C37.6040606 25.91426576 32.70122715 25.9136325 27.79830933 25.92354965 C23.18864276 25.93222253 18.57922341 25.9261915 13.96958351 25.90886688 C12.27891767 25.90490376 10.58823099 25.9060331 8.89757347 25.91265488 C6.58756881 25.92086754 4.27835358 25.91055285 1.96839905 25.89561462 C0.67646385 25.89448355 -0.61547134 25.89335247 -1.94655609 25.89218712 C-5.76301281 25.4788527 -8.1716451 24.50834103 -11.43235779 22.5146637 C-14.14814823 19.04968968 -15.25652278 15.91053895 -15.43235779 11.5146637 C-12.82326436 3.10758487 -8.67965029 -0.10432684 0 0 Z " fill="#9A26FE" transform="translate(331.43235778808594,450.48533630371094)"/>
</svg>
